arm28_optimize_states
version=1
nRows=33
nColumns=21
inDegrees=yes

# SIMM Motion File Header:
name arm28_optimize_states
datacolumns 21
datarows 33
otherdata 1
range 0.73687773 0.74278334
endheader
time	r_shoulder_elev	r_elbow_flex	r_shoulder_elev_u	r_elbow_flex_u	TRIlong.activation	TRIlong.fiber_length	TRIlat.activation	TRIlat.fiber_length	TRImed.activation	TRImed.fiber_length	BIClong.activation	BIClong.fiber_length	BICshort.activation	BICshort.fiber_length	BRA.activation	BRA.fiber_length	DeltAnt.activation	DeltAnt.fiber_length	DeltPost.activation	DeltPost.fiber_length
      0.73687773	      7.36013474	     53.12262730	    209.38287416	    -61.67139319	      0.01085135	      0.16186241	      0.01200310	      0.09167869	      0.01205301	      0.08663505	      0.06417953	      0.12156039	      0.09677341	      0.12360295	      0.07914319	      0.08055571	      0.06256569	      0.15766311	      0.01293529	      0.11491266
      0.73705121	      7.39645883	     53.11193225	    209.39024875	    -61.63004108	      0.01085203	      0.16188109	      0.01200481	      0.09167458	      0.01205467	      0.08663095	      0.06424885	      0.12155646	      0.09671940	      0.12361017	      0.07909886	      0.08055867	      0.06259182	      0.15764057	      0.01293067	      0.11494040
      0.73722469	      7.43278413	     53.10124445	    209.39640731	    -61.58717171	      0.01085270	      0.16189978	      0.01200652	      0.09167047	      0.01205633	      0.08662686	      0.06431818	      0.12155251	      0.09666531	      0.12361742	      0.07905446	      0.08056164	      0.06261796	      0.15761802	      0.01292607	      0.11496997
      0.73744801	      7.47954657	     53.08749710	    209.40522688	    -61.53427968	      0.01085358	      0.16192384	      0.01200872	      0.09166518	      0.01205846	      0.08662159	      0.06440747	      0.12154740	      0.09659558	      0.12362677	      0.07899723	      0.08056546	      0.06265160	      0.15758898	      0.01292016	      0.11500614
      0.73762119	      7.51581270	     53.07684401	    209.41064045	    -61.49146272	      0.01085425	      0.16194250	      0.01201043	      0.09166108	      0.01206011	      0.08661751	      0.06447674	      0.12154343	      0.09654141	      0.12363404	      0.07895277	      0.08056841	      0.06267769	      0.15756646	      0.01291559	      0.11503654
      0.73779438	      7.55207983	     53.06619819	    209.41731844	    -61.45131259	      0.01085493	      0.16196117	      0.01201214	      0.09165699	      0.01206176	      0.08661344	      0.06454602	      0.12153944	      0.09648717	      0.12364134	      0.07890826	      0.08057137	      0.06270378	      0.15754394	      0.01291103	      0.11506417
      0.73796756	      7.58834804	     53.05555939	    209.42277868	    -61.40963688	      0.01085561	      0.16197984	      0.01201385	      0.09165289	      0.01206341	      0.08660936	      0.06461533	      0.12153544	      0.09643285	      0.12364865	      0.07886368	      0.08057432	      0.06272987	      0.15752141	      0.01290649	      0.11509363
      0.73819019	      7.63497358	     53.04189334	    209.43068787	    -61.35834320	      0.01085648	      0.16200384	      0.01201604	      0.09164764	      0.01206554	      0.08660413	      0.06470445	      0.12153028	      0.09636291	      0.12365809	      0.07880629	      0.08057811	      0.06276341	      0.15749244	      0.01290066	      0.11512961
      0.73836309	      7.67118334	     53.03128839	    209.43540487	    -61.31670585	      0.01085715	      0.16202248	      0.01201775	      0.09164356	      0.01206719	      0.08660007	      0.06477368	      0.12152626	      0.09630851	      0.12366544	      0.07876165	      0.08058106	      0.06278946	      0.15746994	      0.01289615	      0.11515990
      0.73853598	      7.70739398	     53.02069050	    209.44138369	    -61.27772750	      0.01085783	      0.16204112	      0.01201945	      0.09163948	      0.01206884	      0.08659601	      0.06484292	      0.12152222	      0.09625403	      0.12367280	      0.07871695	      0.08058400	      0.06281551	      0.15744743	      0.01289164	      0.11518742
      0.73870888	      7.74360558	     53.01009943	    209.44614334	    -61.23721593	      0.01085850	      0.16205977	      0.01202116	      0.09163540	      0.01207049	      0.08659195	      0.06491218	      0.12151817	      0.09619949	      0.12368019	      0.07867219	      0.08058693	      0.06284156	      0.15742492	      0.01288715	      0.11521678
      0.73893084	      7.79009667	     52.99651237	    209.45314231	    -61.18747775	      0.01085937	      0.16208371	      0.01202335	      0.09163018	      0.01207261	      0.08658675	      0.06500113	      0.12151295	      0.09612935	      0.12368971	      0.07861464	      0.08059070	      0.06287500	      0.15739602	      0.01288141	      0.11525258
      0.73910345	      7.82625055	     52.98595431	    209.45716093	    -61.14699196	      0.01086005	      0.16210233	      0.01202505	      0.09162611	      0.01207425	      0.08658270	      0.06507031	      0.12150887	      0.09607472	      0.12369713	      0.07856982	      0.08059363	      0.06290100	      0.15737353	      0.01287695	      0.11528276
      0.73927606	      7.86240519	     52.97540308	    209.46243909	    -61.10915802	      0.01086072	      0.16212095	      0.01202676	      0.09162206	      0.01207590	      0.08657866	      0.06513951	      0.12150479	      0.09602002	      0.12370457	      0.07852495	      0.08059656	      0.06292700	      0.15735105	      0.01287250	      0.11531017
      0.73944867	      7.89856066	     52.96485847	    209.46649688	    -61.06978382	      0.01086140	      0.16213958	      0.01202846	      0.09161800	      0.01207755	      0.08657462	      0.06520872	      0.12150069	      0.09596525	      0.12371203	      0.07848001	      0.08059948	      0.06295301	      0.15732856	      0.01286807	      0.11533943
      0.73966999	      7.94491970	     52.95134818	    209.47258690	    -61.02156204	      0.01086226	      0.16216346	      0.01203064	      0.09161280	      0.01207966	      0.08656945	      0.06529748	      0.12149542	      0.09589491	      0.12372163	      0.07842231	      0.08060322	      0.06298635	      0.15729971	      0.01286240	      0.11537504
      0.73984232	      7.98101819	     52.94083574	    209.47590628	    -60.98220236	      0.01086294	      0.16218206	      0.01203234	      0.09160876	      0.01208130	      0.08656542	      0.06536661	      0.12149130	      0.09584006	      0.12372912	      0.07837731	      0.08060614	      0.06301231	      0.15727725	      0.01285800	      0.11540511
      0.74001465	      8.01711731	     52.93032995	    209.48048316	    -60.94548798	      0.01086361	      0.16220066	      0.01203404	      0.09160471	      0.01208295	      0.08656140	      0.06543575	      0.12148716	      0.09578514	      0.12373663	      0.07833226	      0.08060905	      0.06303827	      0.15725478	      0.01285361	      0.11543243
      0.74018697	      8.05321714	     52.91983056	    209.48383870	    -60.90722686	      0.01086429	      0.16221926	      0.01203574	      0.09160067	      0.01208459	      0.08655738	      0.06550491	      0.12148302	      0.09573014	      0.12374417	      0.07828715	      0.08061196	      0.06306424	      0.15723231	      0.01284923	      0.11546158
      0.74040765	      8.09944653	     52.90639485	    209.48902203	    -60.86048581	      0.01086515	      0.16224308	      0.01203792	      0.09159551	      0.01208670	      0.08655223	      0.06559349	      0.12147769	      0.09565962	      0.12375385	      0.07822930	      0.08061568	      0.06309748	      0.15720353	      0.01284363	      0.11549701
      0.74057971	      8.13549011	     52.89592683	    209.49164211	    -60.82222913	      0.01086582	      0.16226166	      0.01203962	      0.09159148	      0.01208834	      0.08654822	      0.06566256	      0.12147353	      0.09560455	      0.12376142	      0.07818413	      0.08061858	      0.06312340	      0.15718108	      0.01283928	      0.11552698
      0.74075176	      8.17153420	     52.88546525	    209.49551789	    -60.78661179	      0.01086650	      0.16228024	      0.01204132	      0.09158745	      0.01208998	      0.08654421	      0.06573165	      0.12146935	      0.09554941	      0.12376900	      0.07813891	      0.08062148	      0.06314932	      0.15715863	      0.01283495	      0.11555418
      0.74092381	      8.20757889	     52.87500988	    209.49817154	    -60.74944174	      0.01086717	      0.16229882	      0.01204302	      0.09158343	      0.01209163	      0.08654021	      0.06580074	      0.12146516	      0.09549420	      0.12377661	      0.07809362	      0.08062438	      0.06317524	      0.15713618	      0.01283062	      0.11558323
      0.74114387	      8.25368099	     52.86164661	    209.50245129	    -60.70414885	      0.01086803	      0.16232259	      0.01204519	      0.09157829	      0.01209373	      0.08653509	      0.06588913	      0.12145978	      0.09542349	      0.12378637	      0.07803563	      0.08062808	      0.06320840	      0.15710746	      0.01282510	      0.11561849
      0.74131566	      8.28967015	     52.85122181	    209.50437275	    -60.66697430	      0.01086871	      0.16234114	      0.01204688	      0.09157428	      0.01209537	      0.08653109	      0.06595814	      0.12145557	      0.09536820	      0.12379402	      0.07799029	      0.08063097	      0.06323427	      0.15708503	      0.01282081	      0.11564835
      0.74148744	      8.32565970	     52.84080325	    209.50754830	    -60.63243363	      0.01086938	      0.16235970	      0.01204858	      0.09157027	      0.01209701	      0.08652710	      0.06602716	      0.12145135	      0.09531285	      0.12380168	      0.07794489	      0.08063385	      0.06326015	      0.15706260	      0.01281652	      0.11567545
      0.74165922	      8.36164973	     52.83039071	    209.50950113	    -60.59633477	      0.01087005	      0.16237825	      0.01205027	      0.09156626	      0.01209864	      0.08652311	      0.06609619	      0.12144712	      0.09525743	      0.12380936	      0.07789944	      0.08063674	      0.06328603	      0.15704017	      0.01281225	      0.11570439
      0.74187867	      8.40762692	     52.81709778	    209.51288121	    -60.55246041	      0.01087091	      0.16240196	      0.01205244	      0.09156115	      0.01210074	      0.08651802	      0.06618439	      0.12144170	      0.09518653	      0.12381921	      0.07784130	      0.08064042	      0.06331909	      0.15701151	      0.01280680	      0.11573948
      0.74205019	      8.44356215	     52.80671503	    209.51410537	    -60.51634914	      0.01087158	      0.16242050	      0.01205413	      0.09155715	      0.01210238	      0.08651404	      0.06625333	      0.12143745	      0.09513104	      0.12382693	      0.07779579	      0.08064329	      0.06334493	      0.15698910	      0.01280256	      0.11576923
      0.74222171	      8.47949765	     52.79633833	    209.51658223	    -60.48286681	      0.01087225	      0.16243903	      0.01205582	      0.09155316	      0.01210401	      0.08651007	      0.06632229	      0.12143318	      0.09507548	      0.12383466	      0.07775023	      0.08064617	      0.06337077	      0.15696669	      0.01279833	      0.11579623
      0.74239322	      8.51543350	     52.78596746	    209.51783595	    -60.44782128	      0.01087293	      0.16245757	      0.01205752	      0.09154917	      0.01210565	      0.08650609	      0.06639125	      0.12142891	      0.09501985	      0.12384242	      0.07770462	      0.08064904	      0.06339661	      0.15694427	      0.01279411	      0.11582507
      0.74261208	      8.56128815	     52.77274281	    209.52032095	    -60.40533850	      0.01087378	      0.16248122	      0.01205968	      0.09154408	      0.01210774	      0.08650103	      0.06647926	      0.12142344	      0.09494876	      0.12385235	      0.07764633	      0.08065270	      0.06342959	      0.15691567	      0.01278874	      0.11585999
      0.74278334	      8.59716992	     52.76240096	    209.52084977	    -60.37027363	      0.01087445	      0.16249973	      0.01206137	      0.09154010	      0.01210937	      0.08649707	      0.06654813	      0.12141915	      0.09489307	      0.12386014	      0.07760066	      0.08065556	      0.06345539	      0.15689328	      0.01278454	      0.11588963
